<svg width="375" height="391" viewBox="0 0 375 391" fill="none" xmlns="http://www.w3.org/2000/svg">
<path d="M185.829 59V48.76L186.949 49.88H183.589V47.8H188.421V59H185.829ZM190.27 59V57.32L194.59 53.24C194.932 52.9307 195.182 52.6533 195.342 52.408C195.502 52.1627 195.609 51.9387 195.662 51.736C195.726 51.5333 195.758 51.3467 195.758 51.176C195.758 50.728 195.604 50.3867 195.294 50.152C194.996 49.9067 194.553 49.784 193.966 49.784C193.497 49.784 193.06 49.8747 192.654 50.056C192.26 50.2373 191.924 50.52 191.646 50.904L189.758 49.688C190.185 49.048 190.782 48.5413 191.55 48.168C192.318 47.7947 193.204 47.608 194.206 47.608C195.038 47.608 195.764 47.7467 196.382 48.024C197.012 48.2907 197.497 48.6693 197.838 49.16C198.19 49.6507 198.366 50.2373 198.366 50.92C198.366 51.2827 198.318 51.6453 198.222 52.008C198.137 52.36 197.956 52.7333 197.678 53.128C197.412 53.5227 197.017 53.9653 196.494 54.456L192.91 57.832L192.414 56.888H198.734V59H190.27ZM203.436 59.192C202.657 59.192 201.884 59.0907 201.116 58.888C200.348 58.6747 199.697 58.376 199.164 57.992L200.172 56.008C200.598 56.3173 201.094 56.5627 201.66 56.744C202.225 56.9253 202.796 57.016 203.372 57.016C204.022 57.016 204.534 56.888 204.908 56.632C205.281 56.376 205.468 56.024 205.468 55.576C205.468 55.1493 205.302 54.8133 204.972 54.568C204.641 54.3227 204.108 54.2 203.372 54.2H202.188V52.488L205.308 48.952L205.596 49.88H199.724V47.8H207.564V49.48L204.46 53.016L203.148 52.264H203.9C205.276 52.264 206.316 52.5733 207.02 53.192C207.724 53.8107 208.076 54.6053 208.076 55.576C208.076 56.2053 207.91 56.7973 207.58 57.352C207.249 57.896 206.742 58.3387 206.06 58.68C205.377 59.0213 204.502 59.192 203.436 59.192ZM210.732 59L218.38 47.8H220.284L212.636 59H210.732ZM211.708 53.848C211.164 53.848 210.684 53.7253 210.268 53.48C209.852 53.224 209.522 52.8667 209.276 52.408C209.042 51.9387 208.924 51.3893 208.924 50.76C208.924 50.1307 209.042 49.5867 209.276 49.128C209.522 48.6693 209.852 48.312 210.268 48.056C210.684 47.8 211.164 47.672 211.708 47.672C212.252 47.672 212.732 47.8 213.148 48.056C213.564 48.312 213.89 48.6693 214.124 49.128C214.359 49.5867 214.476 50.1307 214.476 50.76C214.476 51.3893 214.359 51.9387 214.124 52.408C213.89 52.8667 213.564 53.224 213.148 53.48C212.732 53.7253 212.252 53.848 211.708 53.848ZM211.708 52.536C212.06 52.536 212.343 52.392 212.556 52.104C212.77 51.8053 212.876 51.3573 212.876 50.76C212.876 50.1627 212.77 49.72 212.556 49.432C212.343 49.1333 212.06 48.984 211.708 48.984C211.367 48.984 211.084 49.1333 210.86 49.432C210.647 49.72 210.54 50.1627 210.54 50.76C210.54 51.3467 210.647 51.7893 210.86 52.088C211.084 52.3867 211.367 52.536 211.708 52.536ZM219.308 59.128C218.775 59.128 218.295 59.0053 217.868 58.76C217.452 58.504 217.127 58.1467 216.892 57.688C216.658 57.2187 216.54 56.6693 216.54 56.04C216.54 55.4107 216.658 54.8667 216.892 54.408C217.127 53.9493 217.452 53.592 217.868 53.336C218.295 53.08 218.775 52.952 219.308 52.952C219.863 52.952 220.348 53.08 220.764 53.336C221.18 53.592 221.506 53.9493 221.74 54.408C221.975 54.8667 222.092 55.4107 222.092 56.04C222.092 56.6693 221.975 57.2187 221.74 57.688C221.506 58.1467 221.18 58.504 220.764 58.76C220.348 59.0053 219.863 59.128 219.308 59.128ZM219.308 57.816C219.66 57.816 219.943 57.672 220.156 57.384C220.37 57.0853 220.476 56.6373 220.476 56.04C220.476 55.4533 220.37 55.0107 220.156 54.712C219.943 54.4133 219.66 54.264 219.308 54.264C218.967 54.264 218.684 54.4133 218.46 54.712C218.247 55 218.14 55.4427 218.14 56.04C218.14 56.6373 218.247 57.0853 218.46 57.384C218.684 57.672 218.967 57.816 219.308 57.816Z" fill="#373737"/>
<path d="M77.3007 211.648V209.904L82.5807 202.8H85.3007L80.1327 209.904L78.8687 209.536H87.6847V211.648H77.3007ZM83.3327 214V211.648L83.4127 209.536V207.44H85.8607V214H83.3327ZM89.5957 214L94.1077 203.792L94.7797 204.912H88.7477L89.8997 203.696V206.736H87.5957V202.8H96.5717V204.48L92.4117 214H89.5957ZM99.4041 214L107.052 202.8H108.956L101.308 214H99.4041ZM100.38 208.848C99.8361 208.848 99.3561 208.725 98.9401 208.48C98.5241 208.224 98.1934 207.867 97.9481 207.408C97.7134 206.939 97.5961 206.389 97.5961 205.76C97.5961 205.131 97.7134 204.587 97.9481 204.128C98.1934 203.669 98.5241 203.312 98.9401 203.056C99.3561 202.8 99.8361 202.672 100.38 202.672C100.924 202.672 101.404 202.8 101.82 203.056C102.236 203.312 102.561 203.669 102.796 204.128C103.031 204.587 103.148 205.131 103.148 205.76C103.148 206.389 103.031 206.939 102.796 207.408C102.561 207.867 102.236 208.224 101.82 208.48C101.404 208.725 100.924 208.848 100.38 208.848ZM100.38 207.536C100.732 207.536 101.015 207.392 101.228 207.104C101.441 206.805 101.548 206.357 101.548 205.76C101.548 205.163 101.441 204.72 101.228 204.432C101.015 204.133 100.732 203.984 100.38 203.984C100.039 203.984 99.7561 204.133 99.5321 204.432C99.3187 204.72 99.2121 205.163 99.2121 205.76C99.2121 206.347 99.3187 206.789 99.5321 207.088C99.7561 207.387 100.039 207.536 100.38 207.536ZM107.98 214.128C107.447 214.128 106.967 214.005 106.54 213.76C106.124 213.504 105.799 213.147 105.564 212.688C105.329 212.219 105.212 211.669 105.212 211.04C105.212 210.411 105.329 209.867 105.564 209.408C105.799 208.949 106.124 208.592 106.54 208.336C106.967 208.08 107.447 207.952 107.98 207.952C108.535 207.952 109.02 208.08 109.436 208.336C109.852 208.592 110.177 208.949 110.412 209.408C110.647 209.867 110.764 210.411 110.764 211.04C110.764 211.669 110.647 212.219 110.412 212.688C110.177 213.147 109.852 213.504 109.436 213.76C109.02 214.005 108.535 214.128 107.98 214.128ZM107.98 212.816C108.332 212.816 108.615 212.672 108.828 212.384C109.041 212.085 109.148 211.637 109.148 211.04C109.148 210.453 109.041 210.011 108.828 209.712C108.615 209.413 108.332 209.264 107.98 209.264C107.639 209.264 107.356 209.413 107.132 209.712C106.919 210 106.812 210.443 106.812 211.04C106.812 211.637 106.919 212.085 107.132 212.384C107.356 212.672 107.639 212.816 107.98 212.816Z" fill="#373737"/>
<rect x="178" y="64" width="46" height="303" rx="23" fill="#3468FC" fill-opacity="0.7"/>
<rect x="71" y="219" width="46" height="148" rx="23" fill="#3468FC"/>
<path d="M296.406 374V362.8H301.254C302.257 362.8 303.121 362.965 303.846 363.296C304.571 363.616 305.131 364.08 305.526 364.688C305.921 365.296 306.118 366.021 306.118 366.864C306.118 367.696 305.921 368.416 305.526 369.024C305.131 369.632 304.571 370.101 303.846 370.432C303.121 370.752 302.257 370.912 301.254 370.912H297.846L298.998 369.744V374H296.406ZM298.998 370.032L297.846 368.8H301.11C301.91 368.8 302.507 368.629 302.902 368.288C303.297 367.947 303.494 367.472 303.494 366.864C303.494 366.245 303.297 365.765 302.902 365.424C302.507 365.083 301.91 364.912 301.11 364.912H297.846L298.998 363.68V370.032ZM312.049 374.128C311.068 374.128 310.204 373.936 309.457 373.552C308.721 373.168 308.15 372.645 307.745 371.984C307.34 371.312 307.137 370.549 307.137 369.696C307.137 368.832 307.334 368.069 307.729 367.408C308.134 366.736 308.684 366.213 309.377 365.84C310.07 365.456 310.854 365.264 311.729 365.264C312.572 365.264 313.329 365.445 314.001 365.808C314.684 366.16 315.222 366.672 315.617 367.344C316.012 368.005 316.209 368.8 316.209 369.728C316.209 369.824 316.204 369.936 316.193 370.064C316.182 370.181 316.172 370.293 316.161 370.4H309.169V368.944H314.849L313.889 369.376C313.889 368.928 313.798 368.539 313.617 368.208C313.436 367.877 313.185 367.621 312.865 367.44C312.545 367.248 312.172 367.152 311.745 367.152C311.318 367.152 310.94 367.248 310.609 367.44C310.289 367.621 310.038 367.883 309.857 368.224C309.676 368.555 309.585 368.949 309.585 369.408V369.792C309.585 370.261 309.686 370.677 309.889 371.04C310.102 371.392 310.396 371.664 310.769 371.856C311.153 372.037 311.601 372.128 312.113 372.128C312.572 372.128 312.972 372.059 313.313 371.92C313.665 371.781 313.985 371.573 314.273 371.296L315.601 372.736C315.206 373.184 314.71 373.531 314.113 373.776C313.516 374.011 312.828 374.128 312.049 374.128ZM317.871 374V365.392H320.255V367.824L319.919 367.12C320.175 366.512 320.585 366.053 321.151 365.744C321.716 365.424 322.404 365.264 323.215 365.264V367.568C323.108 367.557 323.012 367.552 322.927 367.552C322.841 367.541 322.751 367.536 322.655 367.536C321.972 367.536 321.417 367.733 320.991 368.128C320.575 368.512 320.367 369.115 320.367 369.936V374H317.871ZM324.715 374V365.392H327.211V374H324.715ZM324.507 364.288L326.667 361.984H329.355L326.459 364.288H324.507ZM333.623 374.128C332.706 374.128 331.89 373.936 331.175 373.552C330.471 373.168 329.911 372.645 329.495 371.984C329.09 371.312 328.887 370.549 328.887 369.696C328.887 368.832 329.09 368.069 329.495 367.408C329.911 366.736 330.471 366.213 331.175 365.84C331.89 365.456 332.706 365.264 333.623 365.264C334.53 365.264 335.34 365.456 336.055 365.84C336.77 366.213 337.33 366.731 337.735 367.392C338.14 368.053 338.343 368.821 338.343 369.696C338.343 370.549 338.14 371.312 337.735 371.984C337.33 372.645 336.77 373.168 336.055 373.552C335.34 373.936 334.53 374.128 333.623 374.128ZM333.623 372.08C334.039 372.08 334.412 371.984 334.743 371.792C335.074 371.6 335.335 371.328 335.527 370.976C335.719 370.613 335.815 370.187 335.815 369.696C335.815 369.195 335.719 368.768 335.527 368.416C335.335 368.064 335.074 367.792 334.743 367.6C334.412 367.408 334.039 367.312 333.623 367.312C333.207 367.312 332.834 367.408 332.503 367.6C332.172 367.792 331.906 368.064 331.703 368.416C331.511 368.768 331.415 369.195 331.415 369.696C331.415 370.187 331.511 370.613 331.703 370.976C331.906 371.328 332.172 371.6 332.503 371.792C332.834 371.984 333.207 372.08 333.623 372.08ZM343.707 374.128C342.897 374.128 342.166 373.947 341.515 373.584C340.865 373.211 340.347 372.693 339.963 372.032C339.59 371.371 339.403 370.592 339.403 369.696C339.403 368.789 339.59 368.005 339.963 367.344C340.347 366.683 340.865 366.171 341.515 365.808C342.166 365.445 342.897 365.264 343.707 365.264C344.433 365.264 345.067 365.424 345.611 365.744C346.155 366.064 346.577 366.549 346.875 367.2C347.174 367.851 347.323 368.683 347.323 369.696C347.323 370.699 347.179 371.531 346.891 372.192C346.603 372.843 346.187 373.328 345.643 373.648C345.11 373.968 344.465 374.128 343.707 374.128ZM344.139 372.08C344.545 372.08 344.913 371.984 345.243 371.792C345.574 371.6 345.835 371.328 346.027 370.976C346.23 370.613 346.331 370.187 346.331 369.696C346.331 369.195 346.23 368.768 346.027 368.416C345.835 368.064 345.574 367.792 345.243 367.6C344.913 367.408 344.545 367.312 344.139 367.312C343.723 367.312 343.35 367.408 343.019 367.6C342.689 367.792 342.422 368.064 342.219 368.416C342.027 368.768 341.931 369.195 341.931 369.696C341.931 370.187 342.027 370.613 342.219 370.976C342.422 371.328 342.689 371.6 343.019 371.792C343.35 371.984 343.723 372.08 344.139 372.08ZM346.395 374V372.24L346.443 369.68L346.283 367.136V362.128H348.779V374H346.395ZM355.186 374.128C354.268 374.128 353.452 373.936 352.738 373.552C352.034 373.168 351.474 372.645 351.058 371.984C350.652 371.312 350.45 370.549 350.45 369.696C350.45 368.832 350.652 368.069 351.058 367.408C351.474 366.736 352.034 366.213 352.738 365.84C353.452 365.456 354.268 365.264 355.186 365.264C356.092 365.264 356.903 365.456 357.618 365.84C358.332 366.213 358.892 366.731 359.298 367.392C359.703 368.053 359.906 368.821 359.906 369.696C359.906 370.549 359.703 371.312 359.298 371.984C358.892 372.645 358.332 373.168 357.618 373.552C356.903 373.936 356.092 374.128 355.186 374.128ZM355.186 372.08C355.602 372.08 355.975 371.984 356.306 371.792C356.636 371.6 356.898 371.328 357.09 370.976C357.282 370.613 357.378 370.187 357.378 369.696C357.378 369.195 357.282 368.768 357.09 368.416C356.898 368.064 356.636 367.792 356.306 367.6C355.975 367.408 355.602 367.312 355.186 367.312C354.77 367.312 354.396 367.408 354.066 367.6C353.735 367.792 353.468 368.064 353.266 368.416C353.074 368.768 352.978 369.195 352.978 369.696C352.978 370.187 353.074 370.613 353.266 370.976C353.468 371.328 353.735 371.6 354.066 371.792C354.396 371.984 354.77 372.08 355.186 372.08ZM364.47 374.128C363.734 374.128 363.025 374.043 362.342 373.872C361.67 373.691 361.137 373.467 360.742 373.2L361.574 371.408C361.969 371.653 362.433 371.856 362.966 372.016C363.51 372.165 364.043 372.24 364.566 372.24C365.142 372.24 365.547 372.171 365.782 372.032C366.027 371.893 366.15 371.701 366.15 371.456C366.15 371.253 366.054 371.104 365.862 371.008C365.681 370.901 365.435 370.821 365.126 370.768C364.817 370.715 364.475 370.661 364.102 370.608C363.739 370.555 363.371 370.485 362.998 370.4C362.625 370.304 362.283 370.165 361.974 369.984C361.665 369.803 361.414 369.557 361.222 369.248C361.041 368.939 360.95 368.539 360.95 368.048C360.95 367.504 361.105 367.024 361.414 366.608C361.734 366.192 362.193 365.867 362.79 365.632C363.387 365.387 364.102 365.264 364.934 365.264C365.521 365.264 366.118 365.328 366.726 365.456C367.334 365.584 367.841 365.771 368.246 366.016L367.414 367.792C366.998 367.547 366.577 367.381 366.15 367.296C365.734 367.2 365.329 367.152 364.934 367.152C364.379 367.152 363.974 367.227 363.718 367.376C363.462 367.525 363.334 367.717 363.334 367.952C363.334 368.165 363.425 368.325 363.606 368.432C363.798 368.539 364.049 368.624 364.358 368.688C364.667 368.752 365.003 368.811 365.366 368.864C365.739 368.907 366.113 368.976 366.486 369.072C366.859 369.168 367.195 369.307 367.494 369.488C367.803 369.659 368.054 369.899 368.246 370.208C368.438 370.507 368.534 370.901 368.534 371.392C368.534 371.925 368.374 372.4 368.054 372.816C367.734 373.221 367.27 373.541 366.662 373.776C366.065 374.011 365.334 374.128 364.47 374.128Z" fill="#373737"/>
<path d="M166.293 387L171.286 375.8H173.846L178.854 387H176.134L172.038 377.112H173.062L168.95 387H166.293ZM168.789 384.6L169.478 382.632H175.238L175.942 384.6H168.789ZM185.072 378.264C185.754 378.264 186.362 378.403 186.896 378.68C187.44 378.947 187.866 379.363 188.176 379.928C188.485 380.483 188.64 381.197 188.64 382.072V387H186.144V382.456C186.144 381.763 185.989 381.251 185.68 380.92C185.381 380.589 184.954 380.424 184.4 380.424C184.005 380.424 183.648 380.509 183.328 380.68C183.018 380.84 182.773 381.091 182.592 381.432C182.421 381.773 182.336 382.211 182.336 382.744V387H179.84V378.392H182.224V380.776L181.776 380.056C182.085 379.48 182.528 379.037 183.104 378.728C183.68 378.419 184.336 378.264 185.072 378.264ZM194.422 387.128C193.409 387.128 192.619 386.872 192.054 386.36C191.489 385.837 191.206 385.064 191.206 384.04V376.488H193.702V384.008C193.702 384.371 193.798 384.653 193.99 384.856C194.182 385.048 194.443 385.144 194.774 385.144C195.169 385.144 195.505 385.037 195.782 384.824L196.454 386.584C196.198 386.765 195.889 386.904 195.526 387C195.174 387.085 194.806 387.128 194.422 387.128ZM189.878 380.504V378.584H195.846V380.504H189.878ZM201.862 387.128C200.88 387.128 200.016 386.936 199.27 386.552C198.534 386.168 197.963 385.645 197.558 384.984C197.152 384.312 196.95 383.549 196.95 382.696C196.95 381.832 197.147 381.069 197.542 380.408C197.947 379.736 198.496 379.213 199.19 378.84C199.883 378.456 200.667 378.264 201.542 378.264C202.384 378.264 203.142 378.445 203.814 378.808C204.496 379.16 205.035 379.672 205.43 380.344C205.824 381.005 206.022 381.8 206.022 382.728C206.022 382.824 206.016 382.936 206.006 383.064C205.995 383.181 205.984 383.293 205.974 383.4H198.982V381.944H204.661L203.702 382.376C203.702 381.928 203.611 381.539 203.43 381.208C203.248 380.877 202.998 380.621 202.678 380.44C202.358 380.248 201.984 380.152 201.558 380.152C201.131 380.152 200.752 380.248 200.422 380.44C200.102 380.621 199.851 380.883 199.67 381.224C199.488 381.555 199.398 381.949 199.398 382.408V382.792C199.398 383.261 199.499 383.677 199.702 384.04C199.915 384.392 200.208 384.664 200.582 384.856C200.966 385.037 201.414 385.128 201.926 385.128C202.384 385.128 202.784 385.059 203.126 384.92C203.478 384.781 203.798 384.573 204.086 384.296L205.414 385.736C205.019 386.184 204.523 386.531 203.926 386.776C203.328 387.011 202.64 387.128 201.862 387.128ZM207.683 387V378.392H210.067V380.824L209.731 380.12C209.987 379.512 210.398 379.053 210.963 378.744C211.529 378.424 212.217 378.264 213.027 378.264V380.568C212.921 380.557 212.825 380.552 212.739 380.552C212.654 380.541 212.563 380.536 212.467 380.536C211.785 380.536 211.23 380.733 210.803 381.128C210.387 381.512 210.179 382.115 210.179 382.936V387H207.683ZM214.527 387V378.392H217.023V387H214.527ZM215.775 377.192C215.316 377.192 214.943 377.059 214.655 376.792C214.367 376.525 214.223 376.195 214.223 375.8C214.223 375.405 214.367 375.075 214.655 374.808C214.943 374.541 215.316 374.408 215.775 374.408C216.234 374.408 216.607 374.536 216.895 374.792C217.183 375.037 217.327 375.357 217.327 375.752C217.327 376.168 217.183 376.515 216.895 376.792C216.618 377.059 216.244 377.192 215.775 377.192ZM223.436 387.128C222.518 387.128 221.702 386.936 220.988 386.552C220.284 386.168 219.724 385.645 219.308 384.984C218.902 384.312 218.7 383.549 218.7 382.696C218.7 381.832 218.902 381.069 219.308 380.408C219.724 379.736 220.284 379.213 220.988 378.84C221.702 378.456 222.518 378.264 223.436 378.264C224.342 378.264 225.153 378.456 225.868 378.84C226.582 379.213 227.142 379.731 227.548 380.392C227.953 381.053 228.156 381.821 228.156 382.696C228.156 383.549 227.953 384.312 227.548 384.984C227.142 385.645 226.582 386.168 225.868 386.552C225.153 386.936 224.342 387.128 223.436 387.128ZM223.436 385.08C223.852 385.08 224.225 384.984 224.556 384.792C224.886 384.6 225.148 384.328 225.34 383.976C225.532 383.613 225.628 383.187 225.628 382.696C225.628 382.195 225.532 381.768 225.34 381.416C225.148 381.064 224.886 380.792 224.556 380.6C224.225 380.408 223.852 380.312 223.436 380.312C223.02 380.312 222.646 380.408 222.316 380.6C221.985 380.792 221.718 381.064 221.516 381.416C221.324 381.768 221.228 382.195 221.228 382.696C221.228 383.187 221.324 383.613 221.516 383.976C221.718 384.328 221.985 384.6 222.316 384.792C222.646 384.984 223.02 385.08 223.436 385.08ZM229.824 387V378.392H232.208V380.824L231.872 380.12C232.128 379.512 232.539 379.053 233.104 378.744C233.669 378.424 234.357 378.264 235.168 378.264V380.568C235.061 380.557 234.965 380.552 234.88 380.552C234.795 380.541 234.704 380.536 234.608 380.536C233.925 380.536 233.371 380.733 232.944 381.128C232.528 381.512 232.32 382.115 232.32 382.936V387H229.824Z" fill="#373737"/>
<path d="M71.4576 387L76.4496 375.8H79.0096L84.0176 387H81.2976L77.2016 377.112H78.2256L74.1136 387H71.4576ZM73.9536 384.6L74.6416 382.632H80.4016L81.1056 384.6H73.9536ZM88.4454 387.128C87.4321 387.128 86.6428 386.872 86.0774 386.36C85.5121 385.837 85.2294 385.064 85.2294 384.04V376.488H87.7254V384.008C87.7254 384.371 87.8214 384.653 88.0134 384.856C88.2054 385.048 88.4668 385.144 88.7974 385.144C89.1921 385.144 89.5281 385.037 89.8054 384.824L90.4774 386.584C90.2214 386.765 89.9121 386.904 89.5494 387C89.1974 387.085 88.8294 387.128 88.4454 387.128ZM83.9014 380.504V378.584H89.8694V380.504H83.9014ZM95.5106 387.128C94.7959 387.128 94.1559 386.989 93.5906 386.712C93.0359 386.435 92.6039 386.013 92.2946 385.448C91.9852 384.872 91.8306 384.141 91.8306 383.256V378.392H94.3266V382.888C94.3266 383.603 94.4759 384.131 94.7746 384.472C95.0839 384.803 95.5159 384.968 96.0706 384.968C96.4546 384.968 96.7959 384.888 97.0946 384.728C97.3932 384.557 97.6279 384.301 97.7986 383.96C97.9692 383.608 98.0546 383.171 98.0546 382.648V378.392H100.551V387H98.1826V384.632L98.6146 385.32C98.3266 385.917 97.8999 386.371 97.3346 386.68C96.7799 386.979 96.1719 387.128 95.5106 387.128ZM108.143 387V385.32L107.983 384.952V381.944C107.983 381.411 107.818 380.995 107.487 380.696C107.167 380.397 106.671 380.248 105.999 380.248C105.54 380.248 105.087 380.323 104.639 380.472C104.202 380.611 103.828 380.803 103.519 381.048L102.623 379.304C103.092 378.973 103.658 378.717 104.319 378.536C104.98 378.355 105.652 378.264 106.335 378.264C107.647 378.264 108.666 378.573 109.391 379.192C110.116 379.811 110.479 380.776 110.479 382.088V387H108.143ZM105.519 387.128C104.847 387.128 104.271 387.016 103.791 386.792C103.311 386.557 102.943 386.243 102.687 385.848C102.431 385.453 102.303 385.011 102.303 384.52C102.303 384.008 102.426 383.56 102.671 383.176C102.927 382.792 103.327 382.493 103.871 382.28C104.415 382.056 105.124 381.944 105.999 381.944H108.287V383.4H106.271C105.684 383.4 105.279 383.496 105.055 383.688C104.842 383.88 104.735 384.12 104.735 384.408C104.735 384.728 104.858 384.984 105.103 385.176C105.359 385.357 105.706 385.448 106.143 385.448C106.559 385.448 106.932 385.352 107.263 385.16C107.594 384.957 107.834 384.664 107.983 384.28L108.367 385.432C108.186 385.987 107.855 386.408 107.375 386.696C106.895 386.984 106.276 387.128 105.519 387.128ZM112.738 387V375.128H115.234V387H112.738Z" fill="#373737"/>
<rect x="9" y="367" width="280" height="4" rx="2" fill="#373737"/>
<rect x="9" y="22" width="4" height="348" rx="2" fill="#373737"/>
<path d="M6.22438 16L13.8724 4.8H15.7764L8.12838 16H6.22438ZM7.20038 10.848C6.65638 10.848 6.17638 10.7253 5.76038 10.48C5.34438 10.224 5.01371 9.86667 4.76838 9.408C4.53371 8.93867 4.41638 8.38933 4.41638 7.76C4.41638 7.13067 4.53371 6.58667 4.76838 6.128C5.01371 5.66933 5.34438 5.312 5.76038 5.056C6.17638 4.8 6.65638 4.672 7.20038 4.672C7.74438 4.672 8.22438 4.8 8.64038 5.056C9.05638 5.312 9.38171 5.66933 9.61638 6.128C9.85104 6.58667 9.96838 7.13067 9.96838 7.76C9.96838 8.38933 9.85104 8.93867 9.61638 9.408C9.38171 9.86667 9.05638 10.224 8.64038 10.48C8.22438 10.7253 7.74438 10.848 7.20038 10.848ZM7.20038 9.536C7.55238 9.536 7.83504 9.392 8.04838 9.104C8.26171 8.80533 8.36838 8.35733 8.36838 7.76C8.36838 7.16267 8.26171 6.72 8.04838 6.432C7.83504 6.13333 7.55238 5.984 7.20038 5.984C6.85904 5.984 6.57638 6.13333 6.35238 6.432C6.13904 6.72 6.03238 7.16267 6.03238 7.76C6.03238 8.34667 6.13904 8.78933 6.35238 9.088C6.57638 9.38667 6.85904 9.536 7.20038 9.536ZM14.8004 16.128C14.267 16.128 13.787 16.0053 13.3604 15.76C12.9444 15.504 12.619 15.1467 12.3844 14.688C12.1497 14.2187 12.0324 13.6693 12.0324 13.04C12.0324 12.4107 12.1497 11.8667 12.3844 11.408C12.619 10.9493 12.9444 10.592 13.3604 10.336C13.787 10.08 14.267 9.952 14.8004 9.952C15.355 9.952 15.8404 10.08 16.2564 10.336C16.6724 10.592 16.9977 10.9493 17.2324 11.408C17.467 11.8667 17.5844 12.4107 17.5844 13.04C17.5844 13.6693 17.467 14.2187 17.2324 14.688C16.9977 15.1467 16.6724 15.504 16.2564 15.76C15.8404 16.0053 15.355 16.128 14.8004 16.128ZM14.8004 14.816C15.1524 14.816 15.435 14.672 15.6484 14.384C15.8617 14.0853 15.9684 13.6373 15.9684 13.04C15.9684 12.4533 15.8617 12.0107 15.6484 11.712C15.435 11.4133 15.1524 11.264 14.8004 11.264C14.459 11.264 14.1764 11.4133 13.9524 11.712C13.739 12 13.6324 12.4427 13.6324 13.04C13.6324 13.6373 13.739 14.0853 13.9524 14.384C14.1764 14.672 14.459 14.816 14.8004 14.816Z" fill="#373737"/>
</svg>
